<?xml version="1.0" standalone="no"?>
<!DOCTYPE svg PUBLIC "-//W3C//DTD SVG 20010904//EN"
 "http://www.w3.org/TR/2001/REC-SVG-20010904/DTD/svg10.dtd">
<svg version="1.0" xmlns="http://www.w3.org/2000/svg"
 width="1524.000000pt" height="633.000000pt" viewBox="0 0 1524.000000 633.000000"
 preserveAspectRatio="xMidYMid meet">

<g transform="translate(0.000000,633.000000) scale(0.100000,-0.100000)"
fill="#000000" stroke="none">
<path d="M9530 4923 c-36 -8 -66 -19 -68 -24 -2 -5 -12 -9 -23 -9 -11 0 -19
-7 -19 -16 0 -10 -6 -14 -14 -11 -8 3 -38 -10 -68 -28 -29 -19 -58 -35 -64
-35 -7 0 -15 -7 -18 -16 -3 -8 -10 -13 -15 -9 -6 3 -15 -4 -21 -15 -6 -11 -17
-20 -25 -20 -8 0 -15 -4 -15 -10 0 -5 -6 -10 -13 -10 -7 0 -18 -9 -25 -20 -7
-11 -19 -20 -27 -20 -8 0 -19 -9 -25 -20 -6 -11 -15 -20 -21 -20 -16 0 -243
-230 -265 -267 -10 -18 -21 -33 -24 -33 -3 0 -5 100 -5 223 0 208 1 222 18
220 13 -1 16 3 11 15 -3 10 -10 31 -14 47 -4 17 -8 22 -9 13 -1 -10 -7 -18
-15 -18 -11 0 -13 9 -9 35 5 32 4 35 -20 35 -22 0 -27 -6 -34 -37 -4 -21 -7
-105 -7 -188 4 -464 6 -425 -18 -459 -12 -17 -28 -35 -35 -41 -7 -5 -21 -22
-31 -37 -62 -96 -117 -174 -127 -183 -7 -6 -22 -30 -35 -55 -12 -25 -27 -51
-33 -59 -13 -16 -31 -63 -56 -146 -16 -54 -16 -68 -4 -140 7 -44 18 -84 23
-89 6 -6 10 -17 10 -24 0 -21 68 -102 86 -102 8 0 14 -6 14 -13 0 -12 31 -29
75 -41 50 -13 109 -14 153 -1 26 8 52 15 58 15 6 0 17 -33 24 -72 7 -40 16
-79 20 -88 4 -8 12 -28 17 -45 5 -16 15 -29 21 -27 7 1 12 -10 12 -29 0 -24 3
-30 16 -25 9 3 18 6 21 6 3 0 1 6 -4 13 -6 6 -13 29 -16 50 -3 20 -13 44 -21
53 -9 9 -14 19 -11 24 3 5 1 40 -5 79 -5 38 -7 76 -5 83 3 7 29 24 57 38 52
25 238 196 238 219 0 24 30 9 46 -24 19 -41 69 -75 111 -75 74 0 180 83 206
161 18 53 33 60 42 20 4 -17 11 -31 16 -31 6 0 19 -9 30 -19 38 -35 110 -31
165 9 30 22 94 116 94 139 0 10 7 24 15 31 8 7 15 20 15 30 0 28 12 31 35 10
34 -32 106 -49 161 -39 76 14 134 63 184 154 42 76 40 73 51 52 35 -62 192
-80 299 -35 62 25 103 55 112 79 4 11 31 19 96 27 50 6 99 15 109 20 10 5 40
20 68 33 27 13 55 29 62 36 7 6 23 15 36 18 12 4 45 32 74 63 28 31 54 54 57
51 3 -3 8 -40 10 -82 3 -52 9 -81 20 -92 9 -9 16 -22 16 -29 0 -24 59 -65 116
-82 57 -16 88 -15 189 6 28 6 81 15 119 20 38 6 74 14 80 19 6 5 31 12 56 15
41 7 69 16 110 36 8 4 15 13 15 21 0 17 -20 16 -185 -16 -69 -13 -154 -26
-190 -30 -36 -3 -78 -8 -95 -10 -16 -2 -48 1 -70 7 -22 7 -42 12 -45 12 -41 7
-73 140 -74 311 l-1 80 -35 3 c-31 2 -37 -2 -51 -30 -18 -38 -15 -59 9 -52 12
4 9 -1 -7 -15 -13 -12 -19 -21 -15 -21 5 0 1 -5 -9 -11 -9 -6 -15 -14 -12 -20
4 -5 3 -9 -2 -9 -4 0 -30 -21 -58 -46 -55 -49 -68 -58 -165 -105 -68 -32 -180
-52 -180 -31 0 6 5 14 10 17 13 8 4 78 -10 83 -6 2 -10 11 -10 21 0 10 -17 26
-42 38 l-42 22 -17 -20 c-22 -26 -36 -82 -21 -87 6 -2 9 -9 6 -17 -3 -7 5 -20
18 -29 18 -13 19 -16 5 -16 -21 0 -22 -13 -2 -30 75 -62 -129 -147 -254 -105
-53 17 -81 48 -81 89 0 44 -10 56 -46 56 -20 0 -34 -5 -35 -12 -1 -7 -3 -30
-4 -51 -3 -32 -2 -37 10 -27 8 6 12 17 9 25 -3 7 -1 16 5 20 29 17 0 -72 -29
-92 -11 -8 -20 -20 -20 -28 0 -7 -11 -22 -25 -33 -14 -11 -25 -26 -25 -34 0
-29 -76 -78 -120 -78 -59 0 -126 65 -137 134 -6 35 -7 36 -49 34 -39 -1 -44
-4 -49 -29 -4 -16 -3 -39 1 -51 9 -30 9 -92 0 -107 -8 -12 2 -53 15 -61 4 -3
4 -11 0 -18 -6 -10 -15 -10 -35 -3 -24 10 -28 8 -42 -23 -29 -59 -103 -85
-137 -48 -34 37 -46 87 -46 192 0 108 -6 123 -46 118 -17 -3 -20 -10 -18 -43
l3 -40 -13 29 -13 29 -11 -38 c-7 -21 -10 -42 -7 -47 9 -14 22 -9 27 10 6 19
-1 -92 -9 -148 -4 -28 -2 -32 7 -20 9 12 10 11 4 -5 -4 -11 -10 -30 -12 -42
-3 -13 -9 -23 -14 -23 -5 0 -9 -4 -9 -10 0 -5 8 -6 18 -3 15 6 15 5 -2 -12
-18 -18 -20 -18 -30 -3 -9 15 -11 14 -21 -5 -6 -12 -16 -22 -23 -22 -7 0 -16
-5 -20 -11 -4 -6 -24 -17 -45 -23 -33 -11 -41 -10 -70 8 -58 36 -76 83 -62
166 6 40 6 40 -10 15 l-16 -25 5 25 c3 14 6 30 6 37 0 7 7 10 15 7 12 -5 12
-2 -1 25 -21 41 -44 40 -45 -1 -2 -29 -2 -30 -6 -6 -2 14 -11 29 -18 32 -23 8
-35 -25 -25 -70 15 -62 12 -76 -25 -133 -19 -29 -35 -59 -35 -67 0 -17 -82
-104 -98 -104 -7 0 -12 -3 -12 -7 0 -5 -16 -19 -36 -33 -31 -20 -33 -25 -18
-30 16 -6 15 -7 -4 -12 -32 -9 -49 24 -51 97 -1 33 -6 121 -11 195 -6 74 -13
203 -16 285 -3 83 -10 174 -15 204 -13 76 -12 77 19 110 15 16 45 51 67 77 46
56 141 152 238 241 37 34 67 67 67 75 0 10 2 10 10 -2 7 -12 13 -10 34 13 14
15 29 27 33 27 5 0 26 16 48 35 22 19 46 35 53 35 6 0 12 4 12 9 0 7 26 20 52
25 4 0 13 7 20 14 6 6 16 12 21 12 5 0 19 10 30 23 13 15 21 18 24 10 4 -10
10 -10 26 -1 12 6 25 16 29 22 6 8 8 8 8 -1 0 -8 6 -8 24 0 18 9 22 15 14 24
-6 7 -13 13 -17 12 -3 0 -35 -8 -71 -16z m-800 -122 c0 -6 -4 -13 -10 -16 -5
-3 -10 1 -10 9 0 9 5 16 10 16 6 0 10 -4 10 -9z m1983 -626 c4 -8 2 -17 -3
-20 -6 -4 -10 3 -10 14 0 25 6 27 13 6z m-1991 -62 c1 -27 2 -84 3 -128 0 -44
6 -127 13 -185 6 -58 14 -136 17 -175 3 -38 9 -97 13 -131 14 -111 13 -116
-38 -132 -76 -23 -169 -4 -217 43 -26 27 -72 113 -84 158 -15 63 1 145 49 247
35 73 95 173 123 204 8 8 34 45 59 80 25 36 48 66 53 66 4 0 8 -21 9 -47z
m1528 -138 c-7 -9 -15 -13 -17 -11 -6 6 20 36 26 30 2 -2 -2 -10 -9 -19z
m-397 -76 c-5 -5 -8 3 -7 19 4 44 7 49 11 18 3 -16 1 -32 -4 -37z m-43 -179
c-18 -11 -24 -6 -16 16 5 14 9 15 19 5 9 -9 9 -14 -3 -21z m-663 -2 c-3 -8 -6
-5 -6 6 -1 11 2 17 5 13 3 -3 4 -12 1 -19z m-307 -502 c0 -3 -4 -8 -10 -11 -5
-3 -10 -1 -10 4 0 6 5 11 10 11 6 0 10 -2 10 -4z"/>
<path d="M6975 4803 c-38 -9 -130 -45 -203 -79 -93 -44 -167 -92 -227 -146
-26 -24 -65 -59 -87 -78 -75 -67 -98 -90 -98 -98 0 -5 -16 -24 -36 -42 -20
-18 -42 -48 -50 -66 -8 -19 -19 -34 -25 -34 -5 0 -8 -4 -5 -9 3 -5 -3 -20 -14
-34 -11 -14 -20 -28 -20 -32 0 -4 -8 -19 -19 -33 -10 -15 -22 -38 -25 -52 -4
-14 -20 -52 -36 -85 -15 -33 -40 -96 -55 -140 -15 -44 -33 -91 -40 -105 -20
-37 -45 -193 -45 -275 0 -108 17 -205 46 -263 15 -29 31 -55 35 -58 5 -3 9
-12 9 -19 0 -8 14 -34 30 -57 17 -24 43 -61 58 -83 15 -22 30 -41 35 -43 4 -2
7 -9 7 -15 1 -20 53 -64 105 -87 28 -13 52 -23 55 -23 3 1 15 -3 27 -8 33 -12
72 11 84 51 6 19 13 70 16 113 6 85 16 99 70 96 36 -2 84 17 81 32 -3 13 59
52 75 46 6 -2 -4 -9 -21 -16 -18 -8 -32 -20 -32 -27 0 -11 11 -9 53 6 28 11
60 25 69 30 10 6 25 10 33 10 8 0 15 5 15 10 0 6 8 10 19 10 10 0 31 6 46 14
22 12 30 12 55 0 39 -20 183 -20 239 0 24 9 52 16 61 16 10 0 20 3 22 8 2 4
29 15 61 25 31 10 57 22 57 28 0 5 9 9 20 9 12 0 34 14 50 30 17 17 30 29 31
28 0 -2 2 -34 4 -73 3 -90 14 -221 21 -264 3 -18 10 -119 15 -225 16 -313 26
-436 43 -540 26 -164 21 -186 -48 -186 -16 0 -30 -8 -37 -21 -9 -17 -13 -19
-19 -8 -7 10 -23 8 -82 -11 -40 -13 -76 -28 -79 -32 -3 -5 -13 -6 -21 -3 -9 4
-19 2 -23 -4 -3 -6 -17 -11 -31 -11 -13 0 -24 -4 -24 -10 0 -5 -7 -7 -15 -4
-8 4 -15 1 -15 -5 0 -7 -6 -11 -12 -10 -27 5 -87 -14 -92 -28 -5 -12 -9 -13
-21 -3 -12 10 -15 9 -15 -6 0 -12 -3 -15 -8 -8 -9 15 -56 -1 -47 -16 3 -5 1
-10 -4 -10 -6 0 -11 4 -11 9 0 9 -29 3 -80 -16 -8 -4 -20 -5 -27 -4 -7 1 -29
-6 -50 -15 -21 -9 -45 -18 -53 -20 -68 -14 -137 -38 -147 -52 -9 -11 -13 -12
-13 -3 0 8 -6 11 -17 7 -9 -4 -31 -9 -50 -12 -19 -3 -49 -12 -68 -20 -19 -8
-38 -13 -42 -12 -5 0 -21 -4 -36 -10 -16 -7 -32 -12 -37 -12 -18 0 -235 -52
-255 -61 -11 -5 -35 -11 -53 -12 -17 -2 -35 -7 -39 -10 -3 -4 -19 -7 -35 -7
-16 0 -31 -6 -34 -15 -5 -11 -10 -13 -19 -5 -6 5 -15 7 -18 3 -4 -3 -22 -8
-39 -10 -18 -1 -42 -7 -53 -12 -28 -13 -166 -45 -188 -43 -10 0 -22 -9 -27
-23 -11 -30 -30 -41 -41 -24 -6 10 -9 11 -9 2 0 -7 -7 -13 -16 -13 -11 0 -15
6 -11 20 4 16 -2 20 -38 26 -65 9 -86 -14 -46 -51 17 -15 30 -16 93 -10 40 5
82 9 93 10 34 3 165 33 285 65 139 37 146 39 190 46 57 9 63 10 100 19 19 5
40 9 45 10 6 1 17 4 25 8 8 4 47 13 85 21 39 8 102 24 140 36 39 12 92 25 118
29 27 4 52 12 55 17 4 5 14 10 22 11 8 1 33 7 55 13 22 6 47 13 55 14 8 1 38
9 65 18 28 9 70 21 95 29 25 7 54 17 65 23 11 5 25 10 30 11 41 4 95 28 95 43
0 14 2 15 10 2 7 -12 15 -12 42 -3 18 6 52 17 75 22 36 10 40 14 35 34 -5 21
-5 21 12 4 12 -11 25 -15 35 -11 9 4 41 13 71 22 30 8 58 18 61 24 3 5 10 8
15 7 26 -5 44 3 44 19 0 14 2 14 9 3 8 -12 14 -12 44 2 19 10 44 17 56 17 12
0 21 4 21 10 0 5 6 7 14 4 8 -3 29 3 48 12 18 10 37 17 42 16 4 -2 14 2 22 9
7 6 18 8 23 5 5 -4 13 -1 16 5 4 5 13 8 21 5 8 -3 14 -1 14 4 0 6 11 10 25 10
14 0 25 3 25 8 0 4 17 8 38 10 20 1 42 8 47 15 6 6 27 12 49 13 25 0 42 6 48
18 7 13 13 14 23 6 9 -8 15 -8 20 0 3 6 10 8 15 5 5 -3 17 -1 27 4 28 15 55
23 87 26 17 2 35 10 42 20 9 12 13 13 17 3 4 -9 8 -10 14 -2 4 5 17 11 28 11
29 1 335 76 380 93 24 9 194 51 215 53 8 1 19 8 23 15 5 7 20 10 38 7 17 -3
29 -1 29 6 0 6 8 8 20 4 15 -5 20 -2 20 11 0 14 3 15 12 6 16 -16 28 -15 28 2
0 9 7 12 20 9 11 -3 28 -2 37 3 10 4 23 9 28 9 6 1 17 5 25 8 8 3 44 13 80 22
136 32 180 48 180 64 1 14 2 14 11 -1 7 -13 15 -15 27 -9 39 19 153 49 172 44
11 -3 20 0 20 6 0 6 9 11 20 11 11 0 20 5 20 11 0 6 7 8 16 5 21 -8 146 23
160 41 10 11 13 11 17 1 4 -10 7 -10 15 1 5 7 15 10 21 7 6 -4 17 -4 24 1 6 4
17 8 22 8 29 2 75 18 75 27 0 5 10 8 23 7 26 -3 67 9 67 20 0 4 13 6 30 5 16
-1 34 4 41 12 6 8 15 11 20 8 5 -3 46 6 92 20 45 13 108 30 140 37 31 7 57 16
57 20 0 4 8 7 18 7 18 -1 249 59 264 69 5 3 51 16 101 29 51 13 117 31 147 40
30 9 74 21 98 27 23 6 42 14 42 19 0 4 10 8 23 8 12 0 44 11 71 25 27 13 53
22 57 19 12 -7 31 35 25 53 -3 8 -14 13 -23 11 -10 -2 -23 2 -28 10 -8 10 -17
10 -35 3 -22 -9 -23 -10 -5 -12 11 -1 25 -1 30 1 6 1 5 -4 -2 -11 -10 -10 -82
-39 -133 -54 -55 -16 -263 -78 -300 -90 -25 -8 -99 -29 -165 -46 -244 -63
-460 -123 -559 -154 -27 -8 -59 -15 -72 -15 -12 0 -24 -3 -26 -7 -1 -5 -37
-16 -78 -27 -41 -10 -80 -23 -87 -28 -6 -5 -17 -8 -25 -7 -21 5 -255 -56 -313
-80 -11 -5 -47 -14 -80 -21 -33 -7 -64 -15 -70 -18 -5 -3 -16 -7 -25 -8 -28
-4 -185 -45 -205 -54 -11 -5 -31 -11 -45 -13 -14 -1 -29 -5 -35 -8 -5 -3 -38
-12 -71 -19 -46 -9 -65 -18 -72 -34 -9 -17 -11 -18 -11 -3 -1 17 -21 25 -21 9
0 -5 -12 -9 -27 -10 -31 -1 -132 -24 -205 -46 -25 -8 -49 -12 -52 -9 -3 3 -12
1 -19 -5 -8 -7 -16 -10 -19 -7 -2 3 -31 -3 -64 -13 -32 -11 -84 -24 -114 -31
-30 -7 -64 -16 -75 -21 -20 -9 -97 -23 -104 -20 -2 1 -7 -4 -11 -10 -4 -7 -24
-14 -43 -16 -20 -2 -49 -9 -64 -17 -15 -8 -47 -18 -70 -22 -24 -4 -46 -11 -49
-16 -3 -6 -14 -7 -25 -4 -10 4 -19 3 -19 -2 0 -4 -10 -9 -22 -10 -50 -4 -119
-23 -135 -36 -7 -5 -13 -6 -13 -1 0 5 -4 3 -8 -3 -5 -7 -30 -16 -58 -20 -27
-3 -54 -13 -61 -22 -10 -13 -12 -13 -13 -2 0 11 -5 10 -20 -4 -11 -10 -20 -16
-20 -14 0 2 -3 37 -6 78 -2 41 -9 93 -13 115 -5 23 -12 82 -16 131 -4 50 -8
106 -11 125 -4 35 -10 138 -19 295 -2 44 -11 185 -20 314 -12 173 -14 240 -6
258 6 13 7 22 2 19 -18 -11 -20 25 -5 64 14 34 14 44 2 70 -7 17 -18 28 -24
26 -6 -2 -16 0 -21 5 -6 6 -16 2 -27 -10 -14 -15 -17 -29 -12 -56 l7 -36 19
23 c28 33 24 16 -9 -50 -22 -42 -42 -65 -78 -88 -69 -45 -145 -80 -205 -95
-29 -7 -62 -18 -73 -25 -26 -15 -136 -26 -153 -15 -14 8 -5 18 57 61 12 8 21
25 21 40 0 23 -6 27 -51 36 -43 9 -56 8 -87 -7 -41 -21 -52 -35 -52 -66 0 -13
-4 -23 -10 -23 -5 0 -10 -7 -10 -15 0 -8 -9 -15 -19 -15 -10 0 -43 -13 -72
-28 -62 -32 -137 -59 -192 -67 -39 -6 -42 -25 -4 -26 21 0 21 -1 -3 -10 -19
-8 -27 -6 -36 5 -6 9 -20 16 -32 16 -40 0 -52 11 -52 49 -1 20 -8 81 -16 136
-9 55 -17 148 -19 207 l-3 108 85 102 c47 57 96 115 109 130 13 15 24 30 24
32 0 2 12 19 28 36 35 42 105 126 137 165 63 77 156 210 179 257 15 29 30 60
35 68 21 36 61 139 61 159 0 11 4 21 10 21 9 0 5 86 -6 122 -6 21 -65 58 -90
57 -11 -1 -28 -3 -39 -6z m55 -74 c11 -8 12 -12 3 -15 -9 -4 -10 -10 -1 -24 9
-14 8 -30 -6 -72 -15 -48 -59 -124 -80 -139 -4 -4 -5 -20 -1 -37 5 -25 0 -40
-29 -81 -20 -28 -36 -56 -36 -61 0 -6 -22 -33 -50 -61 -27 -27 -50 -55 -50
-60 0 -6 -15 -25 -32 -43 -43 -42 -128 -143 -128 -151 0 -3 -18 -25 -40 -47
-22 -23 -40 -45 -40 -50 0 -4 -20 -28 -44 -52 -24 -25 -59 -69 -79 -98 -19
-29 -44 -62 -56 -72 -12 -11 -28 -33 -37 -50 -80 -155 -78 -148 -82 -237 -2
-47 1 -103 7 -126 15 -56 75 -119 130 -135 27 -8 46 -21 51 -34 11 -28 4 -174
-8 -186 -12 -12 -78 20 -112 56 -14 14 -47 52 -75 85 -31 36 -57 58 -69 57
-10 0 -21 5 -24 13 -3 8 0 11 7 7 15 -10 14 39 -1 56 -23 25 -39 59 -32 70 4
5 1 14 -7 18 -40 25 -58 304 -25 399 8 24 12 49 10 56 -8 19 14 29 31 15 13
-11 14 -4 9 47 -4 40 -3 63 5 67 6 4 11 17 11 29 0 26 59 176 77 195 7 7 13
20 13 28 0 8 7 17 15 20 8 4 12 10 10 15 -3 4 3 17 14 28 11 11 23 36 27 55 3
20 10 34 14 31 5 -3 11 4 15 15 3 11 10 20 15 20 4 0 20 20 34 43 14 24 41 56
61 71 19 15 35 32 35 37 0 15 90 99 106 99 7 0 16 9 19 20 3 11 13 20 20 20 8
0 29 13 47 28 56 49 262 140 318 141 14 0 32 -4 40 -10z m-70 -373 c-13 -25
-40 -43 -40 -27 0 13 42 63 48 57 3 -4 -1 -17 -8 -30z m-594 -867 c1 -13 14
-86 30 -161 15 -76 25 -140 22 -143 -8 -8 -68 25 -68 37 0 6 -7 19 -16 29 -26
29 -30 138 -9 210 18 60 39 74 41 28z m605 -152 c-1 -12 -15 -9 -19 4 -3 6 1
10 8 8 6 -3 11 -8 11 -12z m-181 -127 c0 -5 -5 -10 -11 -10 -5 0 -7 5 -4 10 3
6 8 10 11 10 2 0 4 -4 4 -10z"/>
<path d="M6395 4310 c-3 -5 -4 -10 -1 -10 2 0 12 -3 20 -6 12 -5 15 -2 10 10
-7 18 -20 21 -29 6z"/>
<path d="M6280 4126 c-12 -34 -13 -46 -1 -46 11 0 26 59 17 67 -3 3 -10 -6
-16 -21z"/>
<path d="M6246 4061 c-4 -7 -5 -15 -2 -18 9 -9 19 4 14 18 -4 11 -6 11 -12 0z"/>
<path d="M6212 4009 c2 -6 8 -10 13 -10 5 0 11 4 13 10 2 6 -4 11 -13 11 -9 0
-15 -5 -13 -11z"/>
<path d="M6337 3733 c-10 -10 -8 -41 3 -48 11 -7 50 25 50 42 0 13 -42 18 -53
6z"/>
<path d="M6106 3678 c-11 -41 -6 -54 9 -24 9 17 12 33 7 38 -6 6 -12 0 -16
-14z"/>
<path d="M6082 3593 c2 -9 8 -18 15 -20 7 -3 9 3 6 16 -6 25 -26 28 -21 4z"/>
<path d="M12243 4423 c-35 -5 -37 -9 -46 -90 -4 -36 -2 -43 13 -43 17 0 29 17
36 49 4 19 34 49 34 33 0 -7 8 -12 18 -12 10 0 23 -5 30 -12 8 -8 15 -9 23 -1
7 7 3 15 -15 26 -13 9 -27 26 -31 37 -3 11 -12 19 -18 18 -7 0 -27 -3 -44 -5z"/>
<path d="M7553 4334 c-28 -28 -30 -54 -4 -54 14 0 20 -10 24 -42 3 -26 14 -49
26 -60 12 -9 21 -22 21 -29 0 -9 3 -10 11 -2 11 11 17 172 6 190 -14 23 -59
22 -84 -3z"/>
<path d="M12283 4316 c15 -5 27 -13 27 -18 0 -4 14 -8 30 -8 17 0 30 4 30 9 0
18 -26 29 -70 28 -42 -1 -43 -1 -17 -11z"/>
<path d="M11986 4151 c-4 -5 -2 -12 3 -15 5 -4 12 -2 15 3 4 5 2 12 -3 15 -5
4 -12 2 -15 -3z"/>
<path d="M3060 4007 c-3 -3 -43 -8 -89 -11 -46 -3 -88 -10 -95 -15 -6 -5 -29
-12 -51 -16 -22 -4 -58 -13 -80 -20 -22 -7 -67 -21 -100 -30 -33 -10 -66 -23
-74 -29 -7 -5 -25 -12 -40 -14 -25 -3 -158 -53 -193 -72 -10 -6 -23 -10 -30
-10 -11 0 -125 -51 -158 -71 -19 -12 -77 -39 -87 -41 -5 -1 -51 -24 -103 -51
-52 -28 -124 -65 -159 -84 -36 -18 -67 -36 -70 -40 -3 -5 -24 -17 -45 -28 -22
-11 -44 -25 -50 -30 -6 -6 -29 -24 -51 -40 -22 -16 -53 -42 -70 -58 -16 -16
-40 -33 -52 -38 -13 -5 -23 -15 -23 -23 0 -7 -13 -19 -30 -26 -16 -7 -30 -16
-30 -20 0 -4 -20 -28 -45 -53 -25 -26 -45 -49 -45 -53 0 -3 -16 -25 -35 -48
-19 -24 -35 -46 -35 -50 0 -4 -9 -28 -21 -53 -28 -62 -34 -104 -19 -147 19
-60 38 -46 33 25 -4 57 -3 62 28 94 18 18 38 31 44 27 5 -3 5 1 -2 9 -10 12
-8 17 8 27 10 7 19 22 19 35 0 26 8 38 35 53 11 6 21 23 23 38 3 25 11 30 42
26 12 -1 11 1 -2 12 -21 16 -13 30 27 49 18 9 29 21 27 31 -2 11 3 15 16 12
21 -6 67 30 57 45 -3 6 2 11 13 11 11 0 22 7 26 15 3 8 10 14 15 13 5 -2 18 8
29 20 12 13 25 21 31 18 5 -3 18 5 29 19 11 14 29 25 39 25 12 0 25 11 33 28
7 15 15 22 17 15 7 -21 23 -15 23 8 0 16 4 19 19 14 13 -4 28 2 43 17 13 13
28 22 34 20 6 -1 17 5 24 13 7 8 19 15 26 15 8 0 14 4 14 9 0 5 10 11 22 13
14 2 29 15 37 33 l15 30 7 -25 c5 -21 7 -23 14 -7 4 10 18 17 36 17 16 0 29 4
29 8 0 4 17 14 38 21 20 8 45 23 55 34 9 11 17 15 17 9 0 -6 7 -9 15 -6 8 4
12 10 9 15 -3 5 -2 8 3 7 13 -4 107 25 114 35 4 5 18 11 31 12 14 2 43 12 65
24 22 11 43 17 47 14 3 -4 6 1 6 9 0 9 9 15 23 15 31 -1 87 13 87 22 0 4 10 8
22 8 13 1 28 9 34 18 8 10 13 12 16 5 3 -9 19 -7 59 4 67 20 94 26 134 31 17
1 64 8 105 15 89 14 209 13 265 -1 22 -6 51 -13 64 -16 62 -15 127 -123 102
-170 -5 -10 -15 -38 -21 -63 -7 -24 -21 -55 -31 -69 -10 -13 -19 -28 -19 -33
0 -5 -14 -24 -31 -42 -16 -19 -36 -42 -43 -51 -9 -12 -21 -16 -40 -13 -28 6
-47 -9 -27 -22 9 -5 8 -10 -4 -20 -8 -7 -15 -18 -16 -24 0 -6 -22 -28 -50 -49
-27 -20 -49 -43 -49 -50 0 -19 -50 -65 -51 -46 0 8 -5 4 -12 -9 -7 -15 -17
-22 -28 -19 -11 3 -16 0 -13 -7 3 -7 -34 -34 -90 -65 -52 -29 -100 -59 -107
-67 -6 -8 -16 -14 -22 -14 -13 0 -400 -258 -442 -294 -16 -14 -34 -26 -39 -26
-6 0 -20 -9 -32 -21 l-23 -21 -23 21 c-19 18 -23 32 -23 82 0 32 -4 59 -8 59
-5 0 -5 5 -2 10 4 6 10 8 15 5 17 -10 21 36 7 65 -9 16 -12 32 -7 35 8 5 2 45
-7 45 -2 0 -17 -10 -33 -22 -16 -12 -33 -19 -36 -15 -4 3 5 12 20 18 l26 12
-22 24 c-26 27 -31 28 -53 7 -15 -15 -15 -18 2 -36 14 -16 15 -23 5 -38 -16
-26 -15 -47 1 -57 7 -4 22 -55 32 -113 10 -58 23 -108 28 -111 5 -4 4 -9 -2
-13 -6 -4 -11 -17 -11 -29 0 -14 -11 -29 -27 -39 -16 -9 -38 -25 -50 -35 -12
-10 -36 -29 -53 -43 -50 -40 -127 -142 -138 -184 -21 -73 17 -186 83 -248 38
-36 174 -102 243 -118 36 -8 52 -17 53 -28 0 -10 2 -28 3 -42 1 -14 3 -38 4
-53 1 -21 7 -28 19 -25 12 2 17 15 18 51 3 62 23 84 78 85 83 2 193 23 296 57
59 19 126 39 151 45 75 19 141 41 230 78 80 33 94 35 250 43 174 8 279 31 415
88 109 46 136 59 175 85 43 29 51 31 155 33 112 1 140 4 151 15 3 4 12 4 20 1
21 -8 161 35 249 77 91 43 201 127 246 189 l31 41 19 -24 c10 -13 19 -29 19
-35 0 -6 6 -11 14 -11 8 0 17 -9 21 -19 8 -26 43 -37 60 -20 12 12 10 23 -11
68 -14 29 -26 67 -27 82 -1 16 -5 29 -9 29 -5 0 -8 6 -8 14 0 12 14 17 80 32
45 9 132 35 185 54 33 11 76 26 95 32 19 5 48 17 63 25 25 12 31 13 45 0 24
-20 108 -41 162 -40 75 2 226 40 254 65 6 4 16 8 23 8 18 0 123 69 123 80 0 6
6 10 14 10 9 0 16 -17 21 -47 8 -55 38 -127 66 -156 10 -12 19 -24 19 -29 0
-4 6 -8 14 -8 7 0 16 -8 19 -19 3 -12 12 -18 28 -17 13 1 29 -2 36 -7 16 -12
34 0 27 18 -3 8 -9 14 -12 13 -20 -2 -32 3 -27 12 3 6 -1 10 -9 10 -8 0 -17 8
-20 18 -4 10 -14 27 -24 38 -40 44 -47 90 -47 306 0 152 -3 210 -12 219 -7 7
-13 9 -13 4 0 -6 -4 -4 -9 4 -8 12 -14 13 -35 3 -23 -10 -26 -17 -26 -67 0
-44 3 -55 17 -55 14 0 15 -2 1 -17 -10 -11 -17 -46 -20 -90 -5 -66 -8 -74 -38
-100 -34 -29 -170 -106 -170 -96 0 3 -6 1 -12 -4 -7 -5 -47 -15 -88 -22 -41
-7 -83 -14 -92 -16 -26 -5 -108 15 -108 27 0 6 12 24 26 41 28 34 29 78 1 121
-36 54 -108 58 -133 7 -6 -12 -17 -28 -23 -34 -19 -19 -12 -37 17 -48 24 -9
25 -12 10 -20 -10 -6 -18 -18 -18 -28 0 -24 -15 -35 -70 -54 -25 -8 -58 -21
-75 -27 -135 -54 -183 -70 -214 -70 -12 0 -31 -4 -41 -10 -25 -13 -31 15 -23
106 4 54 0 95 -17 170 -12 55 -26 109 -31 122 -5 13 -9 34 -9 47 0 17 -4 23
-14 19 -8 -3 -19 3 -25 14 -15 29 -40 35 -68 17 -17 -11 -22 -22 -18 -35 3
-11 10 -43 16 -72 5 -29 11 -62 13 -73 2 -11 9 -51 15 -90 17 -100 32 -157 48
-180 28 -42 0 -98 -38 -74 -43 27 -93 -10 -58 -43 9 -9 21 -13 24 -10 4 4 5
-2 1 -14 -4 -13 -1 -26 9 -34 23 -19 19 -28 -42 -86 -38 -35 -94 -72 -163
-106 -58 -29 -107 -53 -110 -54 -3 0 -18 -6 -35 -13 -37 -16 -132 -30 -157
-23 -11 3 -18 -1 -18 -11 0 -8 -7 -18 -16 -21 -28 -11 -54 -6 -54 9 0 9 -6 12
-15 9 -23 -9 -19 23 5 36 53 28 78 157 45 232 -8 18 -29 47 -47 64 l-33 32
-68 -17 c-73 -19 -117 -53 -117 -91 0 -27 18 -26 30 3 5 12 9 16 9 10 1 -8 9
-5 21 7 11 11 25 20 30 20 6 0 10 -9 10 -20 0 -23 4 -24 31 -10 15 9 26 6 49
-10 17 -12 30 -28 30 -36 0 -8 5 -14 10 -14 6 0 10 9 10 20 0 11 4 20 8 20 12
0 8 -27 -11 -85 -13 -37 -30 -62 -63 -89 -53 -45 -72 -43 -126 10 -31 30 -38
43 -38 75 0 41 -21 55 -35 22 -7 -17 -8 -16 -15 2 -7 15 -9 10 -9 -23 -1 -49
30 -106 80 -145 17 -13 29 -29 26 -33 -6 -11 -129 -72 -207 -104 -30 -12 -70
-29 -89 -36 -18 -8 -54 -17 -80 -21 -25 -3 -51 -10 -58 -15 -7 -5 -17 -7 -22
-4 -5 4 -14 -1 -19 -10 -6 -10 -21 -16 -43 -15 -94 3 -98 10 -25 50 68 38 128
92 122 108 -3 8 -1 11 4 8 6 -3 11 2 12 12 3 40 4 73 1 73 -7 0 -62 -66 -63
-73 -1 -29 -203 -137 -256 -137 -36 0 -80 36 -104 85 -8 17 -16 34 -19 39 -2
5 1 6 7 2 13 -8 17 6 5 17 -10 11 -10 56 0 50 5 -3 6 5 2 17 -5 16 -4 20 5 15
8 -5 10 -2 6 11 -4 13 5 32 29 58 19 22 35 42 35 45 0 4 10 12 21 20 20 12 21
11 16 -8 -4 -18 -2 -20 21 -15 38 9 51 24 21 24 -37 1 -2 18 41 20 61 4 70 1
70 -21 0 -11 5 -17 10 -14 6 3 10 -1 10 -9 0 -8 9 -20 19 -26 11 -5 23 -20 26
-32 15 -47 38 -88 50 -88 28 0 26 99 -2 111 -4 2 -15 18 -23 34 -13 25 -21 29
-48 27 -18 -2 -32 1 -32 7 0 6 6 11 13 11 6 0 -1 11 -17 25 -16 14 -34 25 -39
25 -28 0 -98 -28 -142 -57 -89 -58 -95 -63 -125 -116 -23 -41 -30 -64 -30
-108 0 -31 6 -67 13 -80 27 -50 48 -76 73 -88 33 -15 24 -26 -39 -46 -28 -10
-56 -21 -62 -26 -5 -5 -18 -9 -30 -9 -12 0 -25 -4 -30 -8 -6 -5 -34 -14 -63
-21 -28 -7 -69 -21 -90 -31 -20 -9 -58 -22 -84 -29 -25 -6 -59 -16 -75 -22
-15 -6 -53 -13 -83 -15 -30 -2 -74 -9 -96 -15 -40 -10 -109 -8 -121 5 -4 3 -5
26 -5 51 2 36 -1 45 -14 45 -14 0 -14 3 -4 15 10 12 10 18 0 30 -7 8 -8 15 -3
15 6 0 10 13 9 30 -1 16 -6 30 -12 30 -6 0 -11 15 -11 33 0 83 -8 153 -18 160
-7 6 -6 10 1 13 7 3 10 14 7 25 -4 15 -8 17 -19 8 -8 -7 -14 -7 -14 -1 0 5 7
15 15 22 12 10 13 16 3 28 -11 13 -11 14 2 7 13 -8 13 -7 1 8 -7 9 -22 17 -32
17 -11 0 -19 4 -19 10 0 5 6 7 13 5 7 -3 18 8 25 25 8 16 20 30 27 30 8 0 20
8 27 18 7 10 42 38 77 63 35 24 83 58 106 74 24 17 56 39 71 50 16 11 31 22
34 25 3 3 18 11 33 18 15 6 33 16 40 22 54 44 76 60 82 60 4 0 29 16 55 35 26
19 53 35 59 35 6 0 11 7 11 15 0 8 3 15 8 15 4 0 25 16 47 35 22 19 44 35 48
35 5 0 -1 -9 -14 -20 -13 -11 -18 -19 -11 -20 7 0 23 9 35 21 12 12 39 32 59
45 25 16 35 29 32 39 -4 8 -1 15 5 15 6 0 11 -6 11 -12 0 -7 12 1 28 17 15 17
45 43 67 60 106 79 262 261 312 364 27 54 41 161 22 161 -5 0 -9 8 -9 18 -1
23 -49 78 -80 91 -14 6 -32 15 -40 20 -54 31 -104 44 -195 48 -55 3 -102 3
-105 0z m2840 -588 c0 -6 -4 -7 -10 -4 -5 3 -10 11 -10 16 0 6 5 7 10 4 6 -3
10 -11 10 -16z m-4340 -69 c0 -5 -5 -10 -11 -10 -5 0 -7 5 -4 10 3 6 8 10 11
10 2 0 4 -4 4 -10z m1620 0 c0 -5 -10 -15 -22 -21 -23 -12 -23 -12 -4 10 21
23 26 26 26 11z m1520 -164 c0 -3 -4 -8 -10 -11 -5 -3 -10 -1 -10 4 0 6 5 11
10 11 6 0 10 -2 10 -4z m606 -42 c-6 -21 -4 -25 8 -21 21 8 31 -10 16 -28 -20
-24 -50 -19 -50 8 0 34 11 67 22 67 6 0 7 -11 4 -26z m-3946 -5 c0 -6 -4 -7
-10 -4 -5 3 -10 11 -10 16 0 6 5 7 10 4 6 -3 10 -11 10 -16z m3429 -114 c0
-26 -2 -27 -9 -10 -5 11 -9 31 -9 45 -1 20 1 22 9 10 5 -8 9 -28 9 -45z
m-2615 -457 c4 -13 9 -57 12 -98 6 -101 9 -124 18 -139 5 -7 9 -37 9 -67 1
-30 5 -54 9 -54 4 0 8 -12 8 -28 0 -15 4 -43 10 -62 7 -26 7 -38 -3 -48 -11
-11 -22 -9 -62 8 -26 11 -57 22 -67 23 -10 2 -28 11 -39 20 -10 9 -24 17 -30
17 -11 0 -38 24 -42 37 -1 4 -8 8 -15 9 -22 4 -42 25 -42 46 0 10 -7 21 -15
24 -10 4 -13 13 -10 25 4 12 2 19 -7 19 -10 0 -10 2 1 9 8 5 11 16 6 30 -4 14
0 28 14 43 12 12 21 28 21 35 0 8 5 11 10 8 6 -3 10 -1 10 4 0 13 41 61 52 61
4 0 16 7 25 15 46 37 109 84 114 84 4 1 10 -9 13 -21z m346 -528 c0 -5 -2 -10
-4 -10 -3 0 -8 5 -11 10 -3 6 -1 10 4 10 6 0 11 -4 11 -10z"/>
<path d="M2070 2350 c0 -5 5 -10 10 -10 6 0 10 5 10 10 0 6 -4 10 -10 10 -5 0
-10 -4 -10 -10z"/>
<path d="M13010 3890 c-27 -23 -27 -54 0 -45 12 4 20 2 20 -5 0 -6 4 -9 9 -6
5 3 11 -3 14 -14 3 -10 0 -21 -7 -24 -6 -2 -1 -5 12 -5 20 -1 22 4 22 48 0 65
-29 86 -70 51z"/>
<path d="M7616 3501 c-4 -7 -5 -15 -2 -18 9 -9 19 4 14 18 -4 11 -6 11 -12 0z"/>
<path d="M8904 3009 c-3 -6 -1 -16 5 -22 8 -8 11 -5 11 11 0 24 -5 28 -16 11z"/>
<path d="M6122 2978 c3 -7 24 -22 49 -35 l44 -23 -37 35 c-38 35 -63 46 -56
23z"/>
<path d="M1194 2765 c-3 -8 -3 -18 -1 -22 3 -5 2 -15 -3 -23 -8 -14 7 -60 21
-60 11 0 69 -60 69 -71 0 -5 8 -9 18 -9 11 0 34 -22 55 -52 29 -42 37 -48 37
-30 0 12 -4 22 -9 22 -5 0 -15 16 -22 35 -7 19 -21 37 -31 41 -10 3 -18 9 -18
14 0 5 -10 31 -22 58 -15 33 -31 53 -51 62 -20 9 -26 15 -18 23 16 16 14 27
-4 27 -9 0 -18 -7 -21 -15z"/>
<path d="M2265 1840 c-6 -9 -5 -140 1 -140 15 0 33 14 28 22 -4 6 0 14 7 19
10 6 8 9 -9 9 -16 0 -21 4 -15 13 4 6 8 17 9 22 0 6 2 16 2 23 1 8 7 10 15 6
6 -4 3 2 -7 14 -22 25 -23 25 -31 12z"/>
</g>
</svg>
